From a SD broadcast including the local sports report from Sat. evening. Also The Columbus Dispatch for the week. Comments, complaints, suggestions, and questions always welcome. Enjoy and please share. Donn't hit and run. GO BUCKS!!!! Beat the Hoosiers!!!!!!																																																																																	
Format                           : AVI
Format/Info                      : Audio Video Interleave
File size                        : 580 MiB
Duration                         : 50mn 0s
Overall bit rate                 : 1 623 Kbps
Movie name                       : OSU_Illinois_First_Quarter_10-2-2010.mpg
Director                         : created.with.SUPER(C).v2010.bld.37
Writing application              : SUPER(C)   

Video
ID                               : 0
Format                           : MPEG-4 Visual
Format profile                   : Simple@L3
Format settings, BVOP            : No
Format settings, QPel            : No
Format settings, GMC             : No warppoints
Format settings, Matrix          : Default (H.263)
Codec ID                         : XVID
Codec ID/Hint                    : XviD
Duration                         : 25mn 0s
Bit rate                         : 3 120 Kbps
Width                            : 624 pixels
Height                           : 352 pixels
Display aspect ratio             : 16:9
Frame rate                       : 29.970 fps
Color space                      : YUV
Chroma subsampling               : 4:2:0
Bit depth                        : 8 bits
Scan type                        : Progressive
Bits/(Pixel*Frame)               : 0.474
Stream size                      : 558 MiB (96%)
Writing library                  : XviD 1.1.2 (UTC 2006-11-01)

Audio
ID                               : 1
Format                           : MPEG Audio
Format version                   : Version 2
Format profile                   : Layer 3
Mode                             : Joint stereo
Mode extension                   : MS Stereo
Codec ID                         : 55
Codec ID/Hint                    : MP3
Duration                         : 50mn 0s
Bit rate mode                    : Constant
Bit rate                         : 112 Kbps
Channel(s)                       : 2 channels
Sampling rate                    : 22.05 KHz
Stream size                      : 20.0 MiB (3%)
Alignment                        : Aligned on interleaves
Interleave, duration             : 26 ms (0.78 video frame)
Interleave, preload duration     : 26 ms
Writing library                  : LAME3.98

